<svg xmlns="http://www.w3.org/2000/svg" xmlns:xlink="http://www.w3.org/1999/xlink" width="750" height="282.23"><rect width="750" height="282.23" rx="0" ry="0" class="a"/><svg height="282.23" viewBox="0 0 75 28.223" width="750" xmlns="http://www.w3.org/2000/svg" xmlns:xlink="http://www.w3.org/1999/xlink"><style>@keyframes j{0%{transform:translateX(0)}4.3%{transform:translateX(-75px)}10.7%{transform:translateX(-150px)}12.6%{transform:translateX(-225px)}22%{transform:translateX(-300px)}29%{transform:translateX(-375px)}31.2%{transform:translateX(-450px)}35.2%{transform:translateX(-525px)}36.6%{transform:translateX(-600px)}39.4%{transform:translateX(-675px)}41.1%{transform:translateX(-750px)}43.4%{transform:translateX(-825px)}53.6%{transform:translateX(-900px)}58.6%{transform:translateX(-975px)}64.2%{transform:translateX(-1050px)}70.8%{transform:translateX(-1125px)}76.2%{transform:translateX(-1200px)}78.6%{transform:translateX(-1275px)}83.3%{transform:translateX(-1350px)}87.2%{transform:translateX(-1425px)}90.5%{transform:translateX(-1500px)}92.4%{transform:translateX(-1575px)}94.9%{transform:translateX(-1650px)}to{transform:translateX(-1725px)}}.a{fill:#282d35}.c{fill:#b9c0cb}.d,.e,.f,.g{fill:#282d35;white-space:pre}.e,.f,.g{fill:#a8cc8c}.f,.g{fill:#b9c0cb}.g{fill:#d290e4}</style><g font-family="Monaco,Consolas,Menlo,'Bitstream Vera Sans Mono','Powerline Symbols',monospace" font-size="1.67"><defs><symbol id="1"><path class="c" d="M0 0h75v2.171H0z"/><text y="1.67" class="d">sample.pdf - 104 lines (modified) 43/104</text></symbol><symbol id="2"><text y="1.67" class="e">$$</text></symbol><symbol id="3"><text y="1.67" class="e">$$</text><text x="3.006" y="1.67" class="e">E</text></symbol><symbol id="4"><text y="1.67" class="f">Press</text><text x="6.012" y="1.67" class="f">tab</text><text x="10.02" y="1.67" class="f">to</text><text x="13.026" y="1.67" class="f">autocomplete:</text><text x="27.054" y="1.67" class="f">xrightarrow{}</text></symbol><symbol id="5"><text y="1.67" class="f">Press</text><text x="6.012" y="1.67" class="f">tab</text><text x="10.02" y="1.67" class="f">to</text><text x="13.026" y="1.67" class="f">autocomplete:</text><text x="27.054" y="1.67" class="f">phi</text></symbol><symbol id="6"><text y="1.67" class="e">$$</text><text x="3.006" y="1.67" class="e">E</text><text x="5.01" y="1.67" class="e">\xrightarrow</text><text x="17.034" y="1.67" class="g">{</text><text x="18.036" y="1.67" class="e">\phi</text><text x="22.044" y="1.67" class="g">}</text></symbol><symbol id="7"><text y="1.67" class="e">$$</text><text x="3.006" y="1.67" class="e">E</text><text x="5.01" y="1.67" class="e">\xrightarrow</text><text x="17.034" y="1.67" class="g">{</text><text x="18.036" y="1.67" class="e">\phi</text><text x="22.044" y="1.67" class="g">}</text><text x="24.048" y="1.67" class="e">F</text></symbol><symbol id="8"><text y="1.67" class="e">$$</text><text x="3.006" y="1.67" class="e">E</text><text x="5.01" y="1.67" class="e">\xrightarrow</text><text x="17.034" y="1.67" class="g">{</text><text x="18.036" y="1.67" class="e">\phi</text><text x="22.044" y="1.67" class="g">}</text><text x="24.048" y="1.67" class="e">F</text><text x="26.052" y="1.67" class="e">$$</text></symbol><symbol id="a"><path fill="transparent" d="M0 0h75v13H0z"/></symbol><symbol id="b"><path fill="#6f7683" d="M0 0h1.102v2.171H0z"/></symbol></defs><path class="a" d="M0 0h75v28.223H0z"/><g style="animation-duration:9.246903s;animation-iteration-count:infinite;animation-name:j;animation-timing-function:steps(1,end)"><svg width="1800"><svg><use xlink:href="#a"/><use xlink:href="#b" x="-.004"/></svg><svg x="75"><use xlink:href="#a"/><use xlink:href="#b" x="-.004" y="2.146"/><use xlink:href="#1" y="23.881"/></svg><svg x="150"><use xlink:href="#a"/><use xlink:href="#b" x=".996" y="2.146"/><text y="3.841" class="e">$</text><use xlink:href="#1" y="23.881"/></svg><svg x="225"><use xlink:href="#a"/><use xlink:href="#b" x="1.996" y="2.146"/><use xlink:href="#2" y="2.171"/><use xlink:href="#1" y="23.881"/></svg><svg x="300"><use xlink:href="#a"/><use xlink:href="#b" x="2.996" y="2.146"/><use xlink:href="#2" y="2.171"/><use xlink:href="#1" y="23.881"/></svg><svg x="375"><use xlink:href="#a"/><use xlink:href="#b" x="3.996" y="2.146"/><use xlink:href="#3" y="2.171"/><use xlink:href="#1" y="23.881"/></svg><svg x="450"><use xlink:href="#a"/><use xlink:href="#b" x="4.996" y="2.146"/><use xlink:href="#3" y="2.171"/><use xlink:href="#1" y="23.881"/></svg><svg x="525"><use xlink:href="#a"/><use xlink:href="#b" x="5.996" y="2.146"/><text y="3.841" class="e">$$</text><text x="3.006" y="3.841" class="e">E</text><text x="5.01" y="3.841" class="e">\</text><use xlink:href="#1" y="23.881"/></svg><svg x="600"><use xlink:href="#a"/><use xlink:href="#b" x="6.996" y="2.146"/><text y="3.841" class="e">$$</text><text x="3.006" y="3.841" class="e">E</text><text x="5.01" y="3.841" class="e">\x</text><use xlink:href="#1" y="23.881"/></svg><svg x="675"><use xlink:href="#a"/><use xlink:href="#b" x="7.996" y="2.146"/><text y="3.841" class="e">$$</text><text x="3.006" y="3.841" class="e">E</text><text x="5.01" y="3.841" class="e">\xr</text><use xlink:href="#1" y="23.881"/><use xlink:href="#4" y="26.052"/></svg><svg x="750"><use xlink:href="#a"/><use xlink:href="#b" x="8.996" y="2.146"/><text y="3.841" class="e">$$</text><text x="3.006" y="3.841" class="e">E</text><text x="5.01" y="3.841" class="e">\xri</text><use xlink:href="#1" y="23.881"/><use xlink:href="#4" y="26.052"/></svg><svg x="825"><use xlink:href="#a"/><use xlink:href="#b" x="17.996" y="2.146"/><text y="3.841" class="e">$$</text><text x="3.006" y="3.841" class="e">E</text><text x="5.01" y="3.841" class="e">\xrightarrow</text><text x="17.034" y="3.841" class="g">{}</text><use xlink:href="#1" y="23.881"/></svg><svg x="900"><use xlink:href="#a"/><use xlink:href="#b" x="18.996" y="2.146"/><text y="3.841" class="e">$$</text><text x="3.006" y="3.841" class="e">E</text><text x="5.01" y="3.841" class="e">\xrightarrow</text><text x="17.034" y="3.841" class="g">{</text><text x="18.036" y="3.841" class="e">\}</text><use xlink:href="#1" y="23.881"/></svg><svg x="975"><use xlink:href="#a"/><use xlink:href="#b" x="19.996" y="2.146"/><text y="3.841" class="e">$$</text><text x="3.006" y="3.841" class="e">E</text><text x="5.01" y="3.841" class="e">\xrightarrow</text><text x="17.034" y="3.841" class="g">{</text><text x="18.036" y="3.841" class="e">\p</text><text x="20.04" y="3.841" class="g">}</text><use xlink:href="#1" y="23.881"/></svg><svg x="1050"><use xlink:href="#a"/><use xlink:href="#b" x="20.996" y="2.146"/><text y="3.841" class="e">$$</text><text x="3.006" y="3.841" class="e">E</text><text x="5.01" y="3.841" class="e">\xrightarrow</text><text x="17.034" y="3.841" class="g">{</text><text x="18.036" y="3.841" class="e">\ph</text><text x="21.042" y="3.841" class="g">}</text><use xlink:href="#1" y="23.881"/><use xlink:href="#5" y="26.052"/></svg><svg x="1125"><use xlink:href="#a"/><use xlink:href="#b" x="21.996" y="2.146"/><use xlink:href="#6" y="2.171"/><use xlink:href="#1" y="23.881"/><use xlink:href="#5" y="26.052"/></svg><svg x="1200"><use xlink:href="#a"/><use xlink:href="#b" x="22.996" y="2.146"/><use xlink:href="#6" y="2.171"/><use xlink:href="#1" y="23.881"/></svg><svg x="1275"><use xlink:href="#a"/><use xlink:href="#b" x="23.996" y="2.146"/><use xlink:href="#6" y="2.171"/><use xlink:href="#1" y="23.881"/></svg><svg x="1350"><use xlink:href="#a"/><use xlink:href="#b" x="24.996" y="2.146"/><use xlink:href="#7" y="2.171"/><use xlink:href="#1" y="23.881"/></svg><svg x="1425"><use xlink:href="#a"/><use xlink:href="#b" x="25.996" y="2.146"/><use xlink:href="#7" y="2.171"/><use xlink:href="#1" y="23.881"/></svg><svg x="1500"><use xlink:href="#a"/><use xlink:href="#b" x="26.996" y="2.146"/><text y="3.841" class="e">$$</text><text x="3.006" y="3.841" class="e">E</text><text x="5.01" y="3.841" class="e">\xrightarrow</text><text x="17.034" y="3.841" class="g">{</text><text x="18.036" y="3.841" class="e">\phi</text><text x="22.044" y="3.841" class="g">}</text><text x="24.048" y="3.841" class="e">F</text><text x="26.052" y="3.841" style="white-space:pre" fill="#e88388">$</text><use xlink:href="#1" y="23.881"/></svg><svg x="1575"><use xlink:href="#a"/><use xlink:href="#b" x="27.996" y="2.146"/><use xlink:href="#8" y="2.171"/><use xlink:href="#1" y="23.881"/></svg><svg x="1650"><use xlink:href="#a"/><use xlink:href="#b" x="27.996" y="2.146"/><use xlink:href="#8" y="2.171"/><path class="c" d="M0 23.881h75v2.171H0z"/><text y="25.551" class="d">sample.pdf - 104 lines 43/104</text><text y="27.722" class="f">Compiled</text><text x="9.018" y="27.722" class="f">succesfully.</text></svg><svg x="1725"><use xlink:href="#a"/><use xlink:href="#b" x="-.004"/></svg></svg></g></g></svg></svg>