<svg xmlns="http://www.w3.org/2000/svg" xmlns:xlink="http://www.w3.org/1999/xlink" width="750" height="282.23"><rect width="750" height="282.23" rx="0" ry="0" class="a"/><svg height="282.23" viewBox="0 0 75 28.223" width="750" xmlns="http://www.w3.org/2000/svg" xmlns:xlink="http://www.w3.org/1999/xlink"><style>@keyframes l{0%{transform:translateX(0)}7.6%{transform:translateX(-75px)}8.2%{transform:translateX(-150px)}11.3%{transform:translateX(-225px)}15.5%{transform:translateX(-300px)}16.4%{transform:translateX(-375px)}18.4%{transform:translateX(-450px)}20.8%{transform:translateX(-525px)}22.7%{transform:translateX(-600px)}24.6%{transform:translateX(-675px)}25.7%{transform:translateX(-750px)}27.5%{transform:translateX(-825px)}29.6%{transform:translateX(-900px)}31%{transform:translateX(-975px)}36.4%{transform:translateX(-1050px)}43.3%{transform:translateX(-1125px)}49.7%{transform:translateX(-1200px)}55.1%{transform:translateX(-1275px)}57.1%{transform:translateX(-1350px)}60.7%{transform:translateX(-1425px)}72.9%{transform:translateX(-1500px)}76.9%{transform:translateX(-1575px)}89.3%{transform:translateX(-1650px)}93.5%{transform:translateX(-1725px)}97.4%{transform:translateX(-1800px)}to{transform:translateX(-1875px)}}.a{fill:#282d35}.c{fill:#b9c0cb}.d,.e,.f,.g,.h,.i{fill:#282d35;white-space:pre}.e,.f,.g,.h,.i{fill:#b9c0cb}.f,.g,.h,.i{fill:#66c2cd}.g,.h,.i{fill:#d290e4}.h,.i{fill:#dbab79}.i{fill:#a8cc8c}</style><g font-family="Monaco,Consolas,Menlo,'Bitstream Vera Sans Mono','Powerline Symbols',monospace" font-size="1.67"><defs><symbol id="1"><path class="c" d="M0 0h75v2.171H0z"/><text y="1.67" class="d">sample.pdf - 105 lines (modified) 43/105</text></symbol><symbol id="2"><text y="1.67" class="e">\end{}</text><text x="7.014" y="1.67" class="e">ab</text><text x="10.02" y="1.67" class="e">to</text><text x="13.026" y="1.67" class="e">autocomplete:</text><text x="27.054" y="1.67" class="e">begin{}</text></symbol><symbol id="3"><path class="c" d="M0 0h75v2.171H0z"/><text y="1.67" class="d">sample.pdf - 107 lines (modified) 43/107</text></symbol><symbol id="4"><text y="1.67" class="f">\begin</text><text x="6.012" y="1.67" class="g">{</text><text x="7.014" y="1.67" class="h">align*</text><text x="13.026" y="1.67" class="g">}</text></symbol><symbol id="5"><text y="1.67" class="f">\end</text><text x="4.008" y="1.67" class="g">{</text><text x="5.01" y="1.67" class="h">align*</text><text x="11.022" y="1.67" class="g">}</text></symbol><symbol id="6"><path class="c" d="M0 0h75v2.171H0z"/><text y="1.67" class="d">sample.pdf - 107 lines (modified) 44/107</text></symbol><symbol id="7"><text x="1.002" y="1.67" class="i">E</text></symbol><symbol id="8"><text x="1.002" y="1.67" class="i">E</text><text x="3.006" y="1.67" class="i">=</text></symbol><symbol id="9"><text x="1.002" y="1.67" class="i">E</text><text x="3.006" y="1.67" class="i">=</text><text x="5.01" y="1.67" class="i">mc^2</text></symbol><symbol id="a"><path fill="transparent" d="M0 0h75v13H0z"/></symbol><symbol id="b"><path fill="#6f7683" d="M0 0h1.102v2.171H0z"/></symbol></defs><path class="a" d="M0 0h75v28.223H0z"/><g style="animation-duration:12.269314s;animation-iteration-count:infinite;animation-name:l;animation-timing-function:steps(1,end)"><svg width="1950"><svg><use xlink:href="#a"/><use xlink:href="#b" x="-.004"/></svg><svg x="75"><use xlink:href="#a"/><use xlink:href="#b" x="-.004" y="2.146"/></svg><svg x="150"><use xlink:href="#a"/><use xlink:href="#b" x="-.004"/><path class="c" d="M0 23.881h75v2.171H0z"/><text y="25.551" class="d">sample.pdf - 105 lines 42/105</text></svg><svg x="225"><use xlink:href="#a"/><use xlink:href="#b" x="-.004" y="2.146"/><path class="c" d="M0 23.881h75v2.171H0z"/><text y="25.551" class="d">sample.pdf - 105 lines 43/105</text></svg><svg x="300"><use xlink:href="#a"/><use xlink:href="#b" x=".996" y="2.146"/><text y="3.841" class="f">\</text><use xlink:href="#1" y="23.881"/></svg><svg x="375"><use xlink:href="#a"/><use xlink:href="#b" x="1.996" y="2.146"/><text y="3.841" class="f">\b</text><use xlink:href="#1" y="23.881"/></svg><svg x="450"><use xlink:href="#a"/><use xlink:href="#b" x="2.996" y="2.146"/><text y="3.841" class="f">\be</text><use xlink:href="#1" y="23.881"/><use xlink:href="#2" y="26.052"/></svg><svg x="525"><use xlink:href="#a"/><use xlink:href="#b" x="3.996" y="2.146"/><text y="3.841" class="f">\beg</text><use xlink:href="#1" y="23.881"/><use xlink:href="#2" y="26.052"/></svg><svg x="600"><use xlink:href="#a"/><use xlink:href="#b" x="6.996" y="2.146"/><text y="3.841" class="f">\begin</text><text x="6.012" y="3.841" class="g">{}</text><text y="8.183" class="f">\end</text><text x="4.008" y="8.183" class="g">{}</text><use xlink:href="#3" y="23.881"/></svg><svg x="675"><use xlink:href="#a"/><use xlink:href="#b" x="7.996" y="2.146"/><text y="3.841" class="f">\begin</text><text x="6.012" y="3.841" class="g">{</text><text x="7.014" y="3.841" class="h">a</text><text x="8.016" y="3.841" class="g">}</text><text y="8.183" class="f">\end</text><text x="4.008" y="8.183" class="g">{</text><text x="5.01" y="8.183" class="h">a</text><text x="6.012" y="8.183" class="g">}</text><use xlink:href="#3" y="23.881"/></svg><svg x="750"><use xlink:href="#a"/><use xlink:href="#b" x="8.996" y="2.146"/><text y="3.841" class="f">\begin</text><text x="6.012" y="3.841" class="g">{</text><text x="7.014" y="3.841" class="h">al</text><text x="9.018" y="3.841" class="g">}</text><text y="8.183" class="f">\end</text><text x="4.008" y="8.183" class="g">{</text><text x="5.01" y="8.183" class="h">al</text><text x="7.014" y="8.183" class="g">}</text><use xlink:href="#3" y="23.881"/></svg><svg x="825"><use xlink:href="#a"/><use xlink:href="#b" x="9.996" y="2.146"/><text y="3.841" class="f">\begin</text><text x="6.012" y="3.841" class="g">{</text><text x="7.014" y="3.841" class="h">ali</text><text x="10.02" y="3.841" class="g">}</text><text y="8.183" class="f">\end</text><text x="4.008" y="8.183" class="g">{</text><text x="5.01" y="8.183" class="h">ali</text><text x="8.016" y="8.183" class="g">}</text><use xlink:href="#3" y="23.881"/></svg><svg x="900"><use xlink:href="#a"/><use xlink:href="#b" x="10.996" y="2.146"/><text y="3.841" class="f">\begin</text><text x="6.012" y="3.841" class="g">{</text><text x="7.014" y="3.841" class="h">alig</text><text x="11.022" y="3.841" class="g">}</text><text y="8.183" class="f">\end</text><text x="4.008" y="8.183" class="g">{</text><text x="5.01" y="8.183" class="h">alig</text><text x="9.018" y="8.183" class="g">}</text><use xlink:href="#3" y="23.881"/></svg><svg x="975"><use xlink:href="#a"/><use xlink:href="#b" x="11.996" y="2.146"/><text y="3.841" class="f">\begin</text><text x="6.012" y="3.841" class="g">{</text><text x="7.014" y="3.841" class="h">align</text><text x="12.024" y="3.841" class="g">}</text><text y="8.183" class="f">\end</text><text x="4.008" y="8.183" class="g">{</text><text x="5.01" y="8.183" class="h">align</text><text x="10.02" y="8.183" class="g">}</text><use xlink:href="#3" y="23.881"/></svg><svg x="1050"><use xlink:href="#a"/><use xlink:href="#b" x="12.996" y="2.146"/><use xlink:href="#4" y="2.171"/><use xlink:href="#5" y="6.513"/><use xlink:href="#3" y="23.881"/></svg><svg x="1125"><use xlink:href="#a"/><use xlink:href="#b" x=".996" y="4.317"/><use xlink:href="#4" y="2.171"/><use xlink:href="#5" y="6.513"/><use xlink:href="#6" y="23.881"/></svg><svg x="1200"><use xlink:href="#a"/><use xlink:href="#b" x="1.996" y="4.317"/><use xlink:href="#4" y="2.171"/><use xlink:href="#7" y="4.342"/><use xlink:href="#5" y="6.513"/><use xlink:href="#6" y="23.881"/></svg><svg x="1275"><use xlink:href="#a"/><use xlink:href="#b" x="2.996" y="4.317"/><use xlink:href="#4" y="2.171"/><use xlink:href="#7" y="4.342"/><use xlink:href="#5" y="6.513"/><use xlink:href="#6" y="23.881"/></svg><svg x="1350"><use xlink:href="#a"/><use xlink:href="#b" x="3.996" y="4.317"/><use xlink:href="#4" y="2.171"/><use xlink:href="#8" y="4.342"/><use xlink:href="#5" y="6.513"/><use xlink:href="#6" y="23.881"/></svg><svg x="1425"><use xlink:href="#a"/><use xlink:href="#b" x="4.996" y="4.317"/><use xlink:href="#4" y="2.171"/><use xlink:href="#8" y="4.342"/><use xlink:href="#5" y="6.513"/><use xlink:href="#6" y="23.881"/></svg><svg x="1500"><use xlink:href="#a"/><use xlink:href="#b" x="5.996" y="4.317"/><use xlink:href="#4" y="2.171"/><text x="1.002" y="6.012" class="i">E</text><text x="3.006" y="6.012" class="i">=</text><text x="5.01" y="6.012" class="i">m</text><use xlink:href="#5" y="6.513"/><use xlink:href="#6" y="23.881"/></svg><svg x="1575"><use xlink:href="#a"/><use xlink:href="#b" x="6.996" y="4.317"/><use xlink:href="#4" y="2.171"/><text x="1.002" y="6.012" class="i">E</text><text x="3.006" y="6.012" class="i">=</text><text x="5.01" y="6.012" class="i">mc</text><use xlink:href="#5" y="6.513"/><use xlink:href="#6" y="23.881"/></svg><svg x="1650"><use xlink:href="#a"/><use xlink:href="#b" x="7.996" y="4.317"/><use xlink:href="#4" y="2.171"/><text x="1.002" y="6.012" class="i">E</text><text x="3.006" y="6.012" class="i">=</text><text x="5.01" y="6.012" class="i">mc^</text><use xlink:href="#5" y="6.513"/><use xlink:href="#6" y="23.881"/></svg><svg x="1725"><use xlink:href="#a"/><use xlink:href="#b" x="8.996" y="4.317"/><use xlink:href="#4" y="2.171"/><use xlink:href="#9" y="4.342"/><use xlink:href="#5" y="6.513"/><use xlink:href="#6" y="23.881"/></svg><svg x="1800"><use xlink:href="#a"/><use xlink:href="#b" x="8.996" y="4.317"/><use xlink:href="#4" y="2.171"/><use xlink:href="#9" y="4.342"/><use xlink:href="#5" y="6.513"/><path class="c" d="M0 23.881h75v2.171H0z"/><text y="25.551" class="d">sample.pdf - 107 lines 44/107</text><text y="27.722" class="e">Compiled</text><text x="9.018" y="27.722" class="e">succesfully.</text></svg><svg x="1875"><use xlink:href="#a"/><use xlink:href="#b" x="-.004"/></svg></svg></g></g></svg></svg>